<?xml version="1.0" standalone="no"?>
<!DOCTYPE svg PUBLIC "-//W3C//DTD SVG 20010904//EN"
 "http://www.w3.org/TR/2001/REC-SVG-20010904/DTD/svg10.dtd">
<svg version="1.0" xmlns="http://www.w3.org/2000/svg"
 width="800.000000pt" height="800.000000pt" viewBox="0 0 800.000000 800.000000"
 preserveAspectRatio="xMidYMid meet">
<metadata>
Created by potrace 1.11, written by Peter Selinger 2001-2013
</metadata>
<g transform="translate(0.000000,800.000000) scale(0.100000,-0.100000)"
fill="#000000" stroke="none">
<path d="M1320 7965 c-105 -21 -119 -25 -184 -47 -177 -61 -337 -163 -474
-306 -170 -176 -290 -423 -321 -657 -3 -27 -6 -1371 -6 -2985 l0 -2935 32
-119 c70 -258 219 -487 418 -640 126 -98 232 -155 370 -199 172 -55 92 -52
1510 -52 1314 0 1405 2 1605 31 110 16 120 17 185 29 97 18 250 53 282 66 15
6 28 10 28 9 0 -4 99 25 222 66 452 150 920 416 1298 738 128 109 392 382 498
514 364 453 618 954 756 1492 53 207 76 326 106 555 27 211 28 754 0 945 -2
14 -6 48 -10 75 -12 94 -16 120 -41 250 -46 230 -112 459 -199 680 -56 143
-185 413 -243 509 -23 37 -42 70 -42 72 0 9 -153 240 -208 314 -200 269 -434
514 -713 745 -257 213 -638 437 -989 580 -174 72 -477 166 -610 191 -14 3 -41
9 -60 14 -19 5 -53 11 -75 15 -23 3 -52 8 -65 11 -14 2 -72 11 -130 19 -58 8
-123 17 -145 21 -22 4 -645 8 -1385 9 -1074 2 -1358 0 -1410 -10z m2084 -1670
c238 -19 481 -120 666 -274 85 -72 1762 -1757 1792 -1802 89 -133 85 -335 -10
-454 -60 -74 -1765 -1776 -1827 -1823 -134 -102 -386 -209 -533 -227 -26 -4
-58 -8 -72 -11 -33 -5 -228 -6 -260 0 -14 3 -43 7 -65 10 -190 26 -385 110
-550 235 -234 178 -390 429 -451 726 -25 122 -25 365 0 485 58 280 167 478
389 707 l131 134 -101 102 c-131 134 -147 151 -197 222 -168 234 -249 499
-241 790 2 72 5 139 8 150 2 11 7 38 11 60 4 22 18 76 31 121 142 473 565 811
1065 851 41 3 76 7 78 8 1 1 15 1 30 0 15 -2 63 -6 106 -10z"/>
<path d="M7006 7964 c-175 -46 -328 -199 -377 -379 -15 -55 -18 -176 -7 -244
19 -110 121 -262 223 -330 135 -90 311 -114 464 -62 265 90 412 367 341 642
-47 183 -218 345 -400 379 -70 13 -181 11 -244 -6z m288 -98 c110 -39 208
-134 254 -243 22 -51 41 -153 36 -190 -16 -110 -17 -114 -57 -203 -19 -42
-129 -146 -182 -173 -257 -130 -561 9 -634 290 -40 151 14 322 137 434 120
110 289 142 446 85z"/>
<path d="M6992 7667 c-9 -10 -12 -76 -12 -218 -1 -182 1 -205 17 -216 21 -16
25 -16 48 1 18 13 21 29 24 128 1 26 3 27 52 24 36 -2 54 -7 61 -19 26 -48
105 -141 121 -143 20 -3 47 21 47 42 0 9 -20 40 -45 71 -25 30 -45 58 -45 62
0 4 11 13 23 18 51 24 72 119 39 183 -31 63 -64 76 -199 79 -93 2 -122 -1
-131 -12z m247 -93 c27 -35 26 -59 -4 -89 -21 -22 -33 -25 -95 -25 -49 0 -70
4 -71 13 -1 6 -2 38 -3 69 l-1 58 77 0 c71 0 78 -2 97 -26z"/>
</g>
</svg>
